<?xml version="1.0" encoding="UTF-8"?>
<svg id="Capa_1" data-name="Capa 1" xmlns="http://www.w3.org/2000/svg" viewBox="0 0 379.93 290.48">
  <defs>
    <style>
      .cls-1 {
        fill: #057dab;
        stroke-width: 0px;
      }

      .cls-2 {
        fill: #05aba5;
        font-family: CascadiaCode-Roman, 'Cascadia Code';
        font-size: 24px;
        font-variation-settings: 'wght' 400;
        letter-spacing: .1em;
      }
    </style>
  </defs>
  <g>
    <path class="cls-1" d="M230.89,0c5.84,2.81,9.37,8.24,13.97,12.43,7.48,6.82,14.58,14.05,21.85,21.11.57,1.35,2.42,1.89,2.32,3.66-1.73,1.64-3.46,3.27-5.19,4.91-9.7,9.56-19.47,19.05-29.03,28.74-2.23,2.26-3.4,2.46-5.81.1-10.18-10-19.73-20.64-30.53-30.03-2.65-2.3-4.2-4.79-.15-8.54,11.22-10.39,21.76-21.53,32.57-32.37Z"/>
    <path class="cls-1" d="M138.31,92.23c1.95-1.31,3.6-2.94,4.94-4.88q5.09-4.36,9.99.56c9.72,9.73,19.34,19.56,29.22,29.12,2.59,2.5,2.48,3.94-.12,6.14-2.38,2.01-4.38,4.48-6.54,6.74-1.91,1.38-3.61,2.97-4.89,4.96-6.75,6.63-13.58,13.18-20.2,19.93-1.9,1.93-2.94,2.26-5.03.15-10.76-10.85-21.65-21.59-32.62-32.23-2.05-1.99-2-3.07,0-5.04,8.51-8.39,16.85-16.95,25.25-25.46Z"/>
    <path class="cls-1" d="M181.87,248.89c-2.63-.4-5.26-.6-7.87.18-3.87.04-5.88-1.45-7.09-5.58-1.7-5.84-4.48-11.44-9.84-16.6-.31,6.79-1.06,12.83.45,18.71.76,2.95-.16,3.06-2.4,3.02-4-.07-8.76,1.33-11.79-.38-3.4-1.93.26-6.54,0-10.11-.66-8.95-.41-17.96-.52-26.94,1.44-2.7-2.55-5.55.22-8.21h15.36c-2.11,6-1.6,11.46-1.41,17.64,4.47-2.57,7.44-6.28,9.58-10,3.91-6.81,9.18-8.84,16.88-6.77-5.98,5.49-12.62,10.31-18.14,16.93,4.95.74,7.36,4.01,9.35,7.69,3.14,5.82,6.02,11.79,9.38,17.48,2.01,3.41-.84,2.42-2.15,2.95Z"/>
    <path class="cls-1" d="M237.08,218.3c3.17-.76.93,2.15,1.94,2.85v13.85c-3.99-3.06-6.55-6.29-11.14-6.61,0,3.95.09,7.73-.03,11.5-.06,2.03.72,2.67,2.62,2.3,7.61-1.48,13.96-4.8,17.64-12.03,1.35,1.1.08,2.64.65,3.87-.61,3.92-1.34,7.82-1.78,11.75-.23,2.08-1.05,2.87-3.13,2.86-9.48-.07-18.95-.02-28.43-.05-1.22,0-2.95.44-2.29-1.94,2.45-8.82.72-17.83,1.08-26.74.22-5.42.68-10.92-1.6-16.76,4.1,0,7.73,0,11.36,0,3-.03,6.01-.06,9.01-.09,1.66.08,3.31.22,4.97.23q10.03.05,9.88,10.96c-2.19-.17-3.59-2.48-5.9-2.18-3.12-1.71-6.49-2.15-9.98-1.88-2.63-.85-4.4-.77-4.13,2.87.26,3.53.06,7.1.06,10.94,4.09-.9,7.11-2.54,9.2-5.7Z"/>
    <path class="cls-1" d="M66.7,223.19c.75-2.64,1.5-5.29,2.24-7.93,8.12-10.82,18.33-14.52,29.84-10.8,9.43,3.04,15.37,11.39,15.34,21.53-.04,10.53-5.89,18.5-15.78,21.53-.47.14-.89.44-1.34.66-2.68.33-5.35.66-8.03.99-7.69-1.39-14.83-3.75-18.92-11.19-2.53-4.6-4.09-9.44-3.35-14.79ZM100.86,228.67c-.48-6.1-1.31-12.21-6.13-16.77-4.16-3.93-9.5-3.23-12.29,1.41-4.22,7.04-2.35,20.96,3.57,26.58,4.58,4.34,10.34,3.31,13.05-2.39,1.3-2.74,1.56-5.74,1.8-8.83Z"/>
    <path class="cls-1" d="M213.75,92c-6.99,6.87-14.05,13.66-20.91,20.65-2.1,2.13-3.32,2.78-5.79.23-10.52-10.87-21.23-21.57-32.05-32.15-2.2-2.15-1.64-3.2.21-5.03,8.74-8.65,17.34-17.44,25.99-26.18,1.84-1.46,3.64-2.95,4.83-5.04,2.71-3.15,4.72-2.84,7.71.3,9.85,10.36,20.01,20.43,30.3,30.34,2.77,2.67,2.72,4.19-.13,6.45-1.92,1.52-3.44,3.56-5.13,5.36-1.96,1.41-3.67,3.06-5.04,5.07Z"/>
    <path class="cls-1" d="M146.97.18c2.59-.82,3.32,1.56,4.64,2.8,5.1,4.8,10.12,9.67,15.17,14.52,5.06,5.22,9.95,10.63,15.25,15.59,2.74,2.57,3.23,4.49.23,6.9-1.52.79-2.67,1.94-3.46,3.47-9.13,9-18.35,17.91-27.35,27.04-2.42,2.45-3.7,3.15-6.53.2-10.37-10.82-21.1-21.31-31.74-31.87-1.7-1.69-2.59-2.34-.08-4.75,11.53-11.05,22.63-22.56,33.88-33.9Z"/>
    <path class="cls-1" d="M250.02,139.19c-5.45,5.36-10.93,10.69-16.32,16.11-1.35,1.36-2.16,1.94-3.87.21-11.09-11.27-22.32-22.4-33.5-33.59-.7-.7-1.32-1.48-2.18-2.45,7.68-7.39,15.31-14.75,22.95-22.1,2.03-2.02,4.05-4.04,6.08-6.06.27-.19.55-.37.8-.58,2.73-2.31,4.81-6.95,7.94-6.72,2.68.2,5.12,4.28,7.58,6.73,8.95,8.91,17.81,17.9,26.83,26.73,1.96,1.91,2.3,3.08.12,5.09-3.66,3.37-7,7.07-10.48,10.62-1.99,2-3.97,4-5.96,5.99Z"/>
    <path class="cls-1" d="M314.67,221.98c-2.96,8.31-7.08,11.01-17.41,9.97-4.86-.49-6.01,1.04-5.43,5.37.28,2.13-.39,4.54.37,6.41,2.09,5.13-.66,5.15-4.38,4.9-3.3-.22-7.45,1.11-9.73-.45-2.61-1.78.51-5.74.31-8.92-.46-7.28-.13-14.6-.15-21.91,0-4.61.36-9.25-1.69-14.29h22.37c3.61.78,7.22,1.56,10.83,2.34,1.39,1.57,2.79,3.14,4.18,4.71,1.02,3.9,1.29,7.84.73,11.84ZM301.9,218.5c-.09-1.6-.1-2.59-.21-3.58-.52-4.37-3.47-5.79-7.33-5.59-4.33.23-2.06,3.71-2.41,5.75-.36,2.09-.24,4.31-.02,6.44.16,1.58-1.22,4.07,1.51,4.51,2.82.46,5.85.29,7.29-2.84.74-1.61.9-3.5,1.18-4.7Z"/>
    <path class="cls-1" d="M345.37,248.15c-2.48.27-4.97.54-7.45.81-.7-1.08-4.59,1.32-2.75-2.53,2.29-1.92,3.01-4.62,3.65-7.36,3.4-9.68,6.63-19.43,10.29-29.01,1.01-2.64-.52-4.32-1.15-6.35.36-.13.52-.23.68-.24q13.46-1.02,17.78,11.66c2.89,8.48,5.79,16.96,8.73,25.43.91,2.62,2.16,5.1,4.79,8.03-5.84,0-10.6-.02-15.36,0-2.1.01-1.77-1.35-1.77-2.73.03-5.05-2.09-7.76-7.54-6.7-.48.09-1,.01-1.5.01-8.59,0-8.88.3-8.4,8.96ZM348.98,232.81h10.12c-1.65-4.76-3.15-9.12-5.14-14.88-1.99,5.94-3.48,10.39-4.98,14.88Z"/>
    <path class="cls-1" d="M16.12,248.48c-3.04.14-6.08.28-9.13.42-.15-.04-.31-.13-.46-.12-4.78.51-7.12-.86-4.64-5.98,0-4.57,0-9.14,0-13.71.02-6.48-.14-12.96.13-19.43.1-2.3-3.62-4.2-1.18-5.99,1.55-1.13,4.49-.48,6.81-.43,6.95.16,13.94-.7,20.85.87,6.34,1.44,10.32,5,11.29,10.39,1,5.53-1.23,10.12-7.16,13.38-2.28,1.26-1.73,1.97-.65,3.6,3.54,5.35,6.89,10.81,10.9,17.16-5.49,0-10.34.02-15.19-.01-2.26-.02-2.25-1.96-2.88-3.45-2.15-5.04-3.35-10.71-8.83-14.56-.99,6.44-.28,12.15.15,17.86ZM26.36,217.54c-.17-1.56-.32-3.36-1.44-4.93-1.95-2.72-4.76-3.87-7.8-3.07-2.91.77-1.39,3.64-1.58,5.59-.22,2.13-.06,4.3-.04,6.46.04,4.7,2.73,6.18,6.86,3.73,2.82-1.68,3.91-4.37,4-7.78Z"/>
  </g>
  <text class="cls-2" transform="translate(51.19 280.04)"><tspan x="0" y="0">CONTROL DE PLAGAS</tspan></text>
</svg>